<svg width="512" height="512" viewBox="0 0 512 512" fill="none" xmlns="http://www.w3.org/2000/svg">
<g opacity="0.7">
<path d="M345.387 42.6667H166.613C88.96 42.6667 42.6667 88.96 42.6667 166.613V345.173C42.6667 423.04 88.96 469.333 166.613 469.333H345.173C422.827 469.333 469.12 423.04 469.12 345.387V166.613C469.333 88.96 423.04 42.6667 345.387 42.6667ZM212.053 283.093C197.547 304.853 177.493 322.56 154.027 334.293C151.893 335.36 149.333 336 146.987 336C141.013 336 135.467 332.8 132.693 327.253C128.64 319.36 131.84 309.76 139.947 305.707C158.507 296.533 174.293 282.453 185.6 265.387C189.44 259.627 189.44 252.373 185.6 246.613C174.08 229.547 158.293 215.467 139.947 206.293C131.84 202.453 128.64 192.853 132.693 184.747C136.533 176.853 146.133 173.653 154.027 177.707C177.493 189.44 197.547 207.147 212.053 228.907C223.147 245.333 223.147 266.667 212.053 283.093ZM362.667 336H277.333C268.587 336 261.333 328.747 261.333 320C261.333 311.253 268.587 304 277.333 304H362.667C371.413 304 378.667 311.253 378.667 320C378.667 328.747 371.413 336 362.667 336Z" fill="#FF6B6B"/>
</g>
</svg>
