<svg width="180" height="180" viewBox="0 0 180 180" fill="none" xmlns="http://www.w3.org/2000/svg">
<g opacity="0.8">
<path d="M16.56 16.5599C13.5 19.6199 13.5 160.38 16.56 163.44C19.62 166.5 160.38 166.5 163.44 163.44C166.5 160.38 166.5 19.6199 163.44 16.5599C160.38 13.4999 19.62 13.4999 16.56 16.5599ZM158.4 89.9999V158.4H90H21.6V89.9999V21.5999H90H158.4V89.9999Z" fill="#FF6B6B"/>
<path d="M63.9 74.6999C57.96 80.4599 57.6 94.4999 63.18 101.52C67.32 106.74 77.4 108.18 77.4 103.5C77.4 102.06 76.32 100.8 74.88 100.8C70.2 100.8 66.6 95.3999 66.6 88.1999C66.6 81.1799 70.2 75.5999 74.7 75.5999C75.96 75.5999 77.4 74.3399 78.12 72.8999C79.92 68.2199 68.94 69.4799 63.9 74.6999Z" fill="#FF6B6B"/>
<path d="M83.88 73.0798C79.38 77.5798 80.46 83.8798 86.58 89.6398C93.42 95.9398 92.7 101.7 85.5 100.44C82.08 99.7198 81 100.26 81 102.78C81 105.48 82.26 106.2 86.94 106.2C99.18 106.2 102.78 95.0398 93.42 86.2198C87.3 80.4598 87.3 74.5198 93.6 76.1398C96.3 76.8598 97.2 76.1398 97.2 73.6198C97.2 69.2998 88.02 68.9398 83.88 73.0798Z" fill="#FF6B6B"/>
<path d="M105.84 72.1799C100.44 75.2399 101.7 84.0599 108.18 89.9998C115.02 96.1198 114.3 101.7 107.1 100.44C103.68 99.7198 102.6 100.26 102.6 102.78C102.6 108 114.12 107.46 117.72 102.24C122.04 96.2998 121.32 92.1599 115.02 86.3999C108.72 80.8199 108.9 75.5998 115.2 75.5998C117.18 75.5998 118.8 74.3399 118.8 72.8998C118.8 69.8399 110.7 69.2999 105.84 72.1799Z" fill="#FF6B6B"/>
</g>
</svg>
