<svg width="512" height="512" viewBox="0 0 512 512" fill="none" xmlns="http://www.w3.org/2000/svg">
<g opacity="0.7">
<path d="M213.333 377.628H132.48C51.4133 377.628 26.6667 352.879 26.6667 271.814V143.813C26.6667 62.7467 51.4133 38 132.48 38H357.12C438.187 38 462.933 62.7467 462.933 143.813C462.933 152.56 455.68 159.813 446.933 159.813C438.187 159.813 430.933 152.56 430.933 143.813C430.933 81.0933 419.84 70 357.12 70H132.48C69.76 70 58.6667 81.0933 58.6667 143.813V271.814C58.6667 334.534 69.76 345.628 132.48 345.628H213.333C222.08 345.628 229.333 352.881 229.333 361.628C229.333 370.374 222.08 377.628 213.333 377.628Z" fill="#FF6B6B"/>
<path d="M213.333 474.056C204.587 474.056 197.333 466.803 197.333 458.056V361.417C197.333 352.67 204.587 345.417 213.333 345.417C222.08 345.417 229.333 352.67 229.333 361.417V458.056C229.333 467.016 222.08 474.056 213.333 474.056Z" fill="#FF6B6B"/>
<path d="M213.333 292.25H42.6667C33.92 292.25 26.6667 284.996 26.6667 276.25C26.6667 267.503 33.92 260.25 42.6667 260.25H213.333C222.08 260.25 229.333 267.503 229.333 276.25C229.333 284.996 222.08 292.25 213.333 292.25Z" fill="#FF6B6B"/>
<path d="M213.338 474.001H143.792C135.045 474.001 127.792 466.746 127.792 458.001C127.792 449.254 135.045 442.001 143.792 442.001H213.338C222.084 442.001 229.338 449.254 229.338 458.001C229.338 466.746 222.084 474.001 213.338 474.001Z" fill="#FF6B6B"/>
<path d="M406.172 474.022H330.438C271.345 474.022 251.292 453.969 251.292 394.876V273.062C251.292 213.969 271.345 193.917 330.438 193.917H406.172C465.265 193.917 485.318 213.969 485.318 273.062V394.876C485.318 454.182 465.265 474.022 406.172 474.022ZM330.438 225.916C288.625 225.916 283.292 231.249 283.292 273.062V394.876C283.292 436.689 288.625 442.022 330.438 442.022H406.172C447.985 442.022 453.318 436.689 453.318 394.876V273.062C453.318 231.249 447.985 225.916 406.172 225.916H330.438Z" fill="#FF6B6B"/>
<path d="M369.084 404.668C363.537 404.668 357.99 402.534 353.937 398.481C352.017 396.561 350.524 394.214 349.457 391.654C348.39 388.881 347.75 386.108 347.75 383.334C347.75 377.788 350.097 372.241 353.937 368.401C358.844 363.494 366.31 361.148 373.35 362.428C374.63 362.854 375.91 363.281 377.19 363.708C378.47 364.348 379.75 364.988 380.817 365.628C382.097 366.481 383.164 367.334 384.23 368.401C388.07 372.241 390.417 377.788 390.417 383.334C390.417 386.108 389.777 388.881 388.71 391.654C387.644 394.214 386.15 396.561 384.23 398.481C383.164 399.548 382.097 400.401 380.817 401.041C379.75 401.894 378.47 402.534 377.19 403.174C375.91 403.601 374.63 404.028 373.35 404.241C371.857 404.668 370.577 404.668 369.084 404.668Z" fill="#FF6B6B"/>
</g>
</svg>
