<svg width="180" height="180" viewBox="0 0 180 180" fill="none" xmlns="http://www.w3.org/2000/svg">
<g opacity="0.8">
<path d="M47.88 3.24001C44.64 7.02 20.52 140.4 22.32 145.08C22.86 146.52 25.2 148.32 27.36 149.22C29.7 150.12 43.2 157.5 57.6 165.42C75.96 175.68 85.5 180 89.82 180C98.28 180 156.42 148.32 157.5 143.1C158.76 137.88 141.3 40.32 138.6 36.9C134.46 32.04 125.82 33.66 118.62 40.68L112.14 46.98L106.2 36.54C102.96 30.78 99.18 24.66 97.56 22.86C93.6 18.36 85.5 18.9 81.36 24.3L77.76 28.8L71.28 17.28C67.68 10.8 63.54 4.32001 61.92 2.88C58.14 -0.899994 51.66 -0.719986 47.88 3.24001ZM64.44 34.2L70.38 45L58.32 68.4C51.66 81.18 45.9 91.44 45.54 91.08C44.46 90.18 56.34 23.4 57.6 23.4C58.14 23.4 61.2 28.26 64.44 34.2ZM100.8 57.06C100.8 57.96 90.9 68.22 79.02 80.1L57.06 101.7L66.06 84.6C71.1 75.24 78.66 60.66 82.8 52.38L90.36 37.26L95.58 46.44C98.46 51.48 100.8 56.34 100.8 57.06ZM142.2 134.46C142.2 137.52 137.52 140.94 117.36 151.92C103.68 159.48 91.44 165.6 90 165.6C88.74 165.6 77.22 159.84 64.44 152.82L41.04 139.86L84.78 96.12L128.7 52.2L135.36 91.44C139.14 112.86 142.2 132.3 142.2 134.46Z" fill="#FF6B6B"/>
</g>
</svg>
