<svg width="180" height="180" viewBox="0 0 180 180" fill="none" xmlns="http://www.w3.org/2000/svg">
<g opacity="0.8">
<path d="M16.56 16.5599C13.5 19.6199 13.5 160.38 16.56 163.44C19.62 166.5 160.38 166.5 163.44 163.44C166.5 160.38 166.5 19.6199 163.44 16.5599C160.38 13.4999 19.62 13.4999 16.56 16.5599ZM158.4 89.9999V158.4H90H21.6V89.9999V21.5999H90H158.4V89.9999Z" fill="#FF6B6B"/>
<path d="M45 93.5999C45 110.34 45.18 111.6 48.6 111.6C51.66 111.6 52.2 110.34 52.2 104.4C52.2 98.4599 52.74 97.1999 55.8 97.1999C58.86 97.1999 59.4 98.4599 59.4 104.4C59.4 110.34 59.94 111.6 63 111.6C66.42 111.6 66.6 110.34 66.6 93.5999C66.6 76.8599 66.42 75.5999 63 75.5999C59.94 75.5999 59.4 76.8599 59.4 82.7999C59.4 88.7399 58.86 89.9999 55.8 89.9999C52.74 89.9999 52.2 88.7399 52.2 82.7999C52.2 76.8599 51.66 75.5999 48.6 75.5999C45.18 75.5999 45 76.8599 45 93.5999Z" fill="#FF6B6B"/>
<path d="M70.2 78.2999C70.2 79.7399 71.46 80.9999 72.9 80.9999C75.06 80.9999 75.6 83.8799 75.6 96.2999C75.6 110.34 75.96 111.6 79.2 111.6C82.44 111.6 82.8 110.34 82.8 97.0199C82.8 84.0599 83.16 82.4399 86.4 81.5399C88.38 80.9999 90 79.3799 90 78.1199C90 76.3199 87.3 75.5999 80.1 75.5999C72.54 75.5999 70.2 76.1399 70.2 78.2999Z" fill="#FF6B6B"/>
<path d="M94.68 83.1599C94.14 87.4799 93.42 95.5799 93.06 101.16C92.52 110.34 92.88 111.6 95.76 111.6C98.46 111.6 99 109.98 99.18 100.26L99.36 89.0999L102.24 99.7199C106.02 113.04 108.9 114.3 111.6 104.04C112.68 99.7199 113.94 95.3999 114.12 94.4999C114.48 93.4199 115.38 97.0199 116.1 102.06C118.08 115.38 122.4 115.2 122.4 101.88C122.4 84.7799 120.42 75.5999 117 75.5999C113.22 75.5999 112.32 77.5799 110.7 88.9199C109.98 93.4199 108.72 97.1999 108 97.1999C107.28 97.1999 106.02 93.4199 105.3 88.9199C103.68 77.3999 102.78 75.5999 99 75.5999C96.3 75.5999 95.4 77.3999 94.68 83.1599Z" fill="#FF6B6B"/>
<path d="M127.8 93.5999V111.6H135.9C141.84 111.6 144 110.88 144 108.9C144 107.28 142.38 106.2 139.5 106.2C135 106.2 135 106.02 135 90.8999C135 76.8599 134.64 75.5999 131.4 75.5999C127.98 75.5999 127.8 76.8599 127.8 93.5999Z" fill="#FF6B6B"/>
</g>
</svg>
