<svg width="180" height="180" viewBox="0 0 180 180" fill="none" xmlns="http://www.w3.org/2000/svg">
<g opacity="0.8">
<path d="M17.46 17.6401C14.76 20.7001 14.4 28.2601 14.4 90.3601C14.4 155.16 14.58 159.84 17.64 162.54C20.7 165.24 28.26 165.6 90.36 165.6C155.16 165.6 159.84 165.42 162.54 162.36C165.24 159.3 165.6 151.74 165.6 89.6401C165.6 24.8401 165.42 20.1601 162.36 17.4601C159.3 14.7601 151.74 14.4001 89.64 14.4001C24.84 14.4001 20.16 14.5801 17.46 17.6401ZM158.4 90.0001V158.4H90H21.6V90.0001V21.6001H90H158.4V90.0001Z" fill="#FF6B6B"/>
<path d="M82.44 108.18C81.9 130.14 81.54 133.92 78.84 135.72C76.32 137.16 74.16 136.8 69.48 134.28C63.54 131.04 62.82 131.04 58.5 133.92C54.18 136.8 54.18 137.16 56.88 141.12C63.9 151.92 82.62 154.08 91.62 145.08C96.3 140.4 96.3 139.86 96.84 111.6L97.38 82.8H90.18H82.98L82.44 108.18Z" fill="#FF6B6B"/>
<path d="M116.64 85.68C110.7 88.92 108 93.42 108 100.62C108 110.16 111.6 114.84 123.66 120.96C135.36 127.08 138.78 131.4 135 135.9C131.58 140.04 124.02 139.14 118.8 134.1L114.3 129.78L109.08 133.74L104.04 137.88L109.62 143.64C119.34 153.36 136.44 153.54 146.16 144C156.6 133.38 151.38 119.34 133.56 110.88C122.4 105.48 119.88 102.96 121.68 98.1C122.94 94.86 131.58 94.5 134.64 97.56C136.26 99.18 137.88 99.18 141.3 97.56C147.42 94.68 146.88 90.72 140.04 86.4C133.02 82.26 123.48 81.9 116.64 85.68Z" fill="#FF6B6B"/>
</g>
</svg>
