<svg width="180" height="180" viewBox="0 0 180 180" fill="none" xmlns="http://www.w3.org/2000/svg">
<g opacity="0.8">
<path d="M118.8 49.6802V65.1602L113.4 63.9002C109.44 63.0002 105.84 63.9002 99 67.6802L90 72.5402V84.0602V95.4002L98.64 100.8C103.32 103.68 108.36 106.2 109.8 106.2C111.24 106.2 116.28 103.68 121.14 100.8L129.6 95.4002V67.6802C129.6 40.8602 129.42 39.7802 125.64 37.0802C123.48 35.4602 120.96 34.2002 120.24 34.2002C119.34 34.2002 118.8 41.2202 118.8 49.6802ZM115.38 77.4002C120.6 80.2802 119.88 88.9202 114.3 91.4402C107.64 94.5002 100.8 90.9002 100.8 84.4202C100.8 77.0402 108 73.6202 115.38 77.4002Z" fill="#FF6B6B"/>
<path d="M8.64 67.8601L0 72.5401V86.7601C0 94.5 0.36 100.8 0.9 100.8C1.26 100.8 3.78 99.9 6.3 98.64C10.26 96.84 10.8 95.58 10.8 87.8401C10.8 80.2801 11.34 78.8401 15.3 77.0401C18.72 75.6001 20.88 75.6001 24.3 77.0401C28.08 78.8401 28.8 80.2801 28.8 87.4801C28.8 93.42 29.7 96.66 32.04 98.28C38.34 103.14 39.6 101.34 39.6 87.6601C39.6 73.2601 38.7 71.6401 27.54 65.8801C19.98 62.1001 18.72 62.2801 8.64 67.8601Z" fill="#FF6B6B"/>
<path d="M53.64 67.8602L45 72.5402V84.0602V95.4002L53.64 100.8C58.32 103.68 63.36 106.2 64.8 106.2C66.24 106.2 71.28 103.68 76.14 100.8L84.6 95.4002V84.9602C84.6 73.4402 83.16 71.2802 72.54 65.8802C64.98 62.1002 63.72 62.2802 53.64 67.8602Z" fill="#FF6B6B"/>
<path d="M143.64 67.8602L135 72.5402V84.0602V95.4002L143.46 100.8C148.14 103.86 153.18 106.2 154.62 106.2C157.68 106.02 163.8 102.06 163.8 100.26C163.8 99.7202 159.84 97.0202 154.8 94.3202C147.24 90.1802 145.8 88.5602 145.8 84.2402C145.8 80.4602 147.06 78.4802 150.3 77.0402C156.24 74.3402 163.8 77.5802 163.8 82.8002C163.8 87.1202 165.24 87.3002 170.64 83.5202C177.84 78.4802 175.14 72.3602 162.54 65.8802C154.98 62.1002 153.72 62.2802 143.64 67.8602Z" fill="#FF6B6B"/>
<path d="M151.2 81.0001C149.04 82.2601 149.04 83.3401 150.48 85.8601C151.56 87.6601 153.54 89.1001 154.8 89.1001C156.06 89.1001 158.04 87.6601 159.12 85.8601C160.56 83.3401 160.56 82.2601 158.4 81.0001C156.96 80.1001 155.34 79.2001 154.8 79.2001C154.26 79.2001 152.64 80.1001 151.2 81.0001Z" fill="#FF6B6B"/>
<path d="M78.3 105.3C68.58 111.24 66.6 114.48 66.6 123.66C66.6 132.12 71.64 139.32 77.04 138.24C79.56 137.7 80.1 135.36 80.28 126C80.46 114.48 80.46 114.48 79.74 124.56C79.02 135 78.3 135.9 73.08 133.92C70.92 133.02 70.2 130.32 70.2 123.12C70.2 113.76 70.38 113.58 78.3 108.9L86.4 104.04L93.96 108.36C101.52 112.5 101.7 112.86 102.24 122.58L102.78 132.48L95.4 136.62C91.26 138.96 86.4 140.4 84.42 139.86C82.08 139.32 81 139.68 81.54 140.94C82.8 144.9 89.1 144 97.74 138.6L106.2 133.2V122.58V111.78L96.48 106.38C91.26 103.32 86.58 100.8 86.22 100.8C85.86 100.8 82.26 102.96 78.3 105.3Z" fill="#FF6B6B"/>
<path d="M84.96 119.16C85.32 122.22 86.94 123.48 90.54 123.84C93.24 124.2 95.4 125.28 95.4 126.18C95.4 128.88 90 130.32 87.66 127.98C84.6 124.92 82.08 125.64 84.6 128.88C88.2 133.02 97.92 131.58 98.64 126.72C99.18 123.48 97.92 122.58 92.52 121.68C87.48 120.6 86.4 119.88 88.02 118.26C89.64 116.64 91.08 116.82 93.78 118.44C97.74 120.96 100.08 120.24 98.1 117.18C97.56 116.1 94.14 115.2 90.72 115.2C85.14 115.2 84.42 115.74 84.96 119.16Z" fill="#FF6B6B"/>
</g>
</svg>
