<svg width="180" height="180" viewBox="0 0 180 180" fill="none" xmlns="http://www.w3.org/2000/svg">
<g opacity="0.8">
<path d="M46.26 18.0001C39.6 23.2201 37.08 32.5801 38.34 47.7001L39.42 60.6601L29.7 64.6201C17.82 69.4801 7.20001 80.6401 7.20001 88.0201C7.20001 98.2801 21.6 111.42 37.26 115.56C40.68 116.46 41.04 117.18 39.42 123.48C34.2 146.34 41.76 165.6 55.8 165.6C61.92 165.42 74.34 159.66 82.8 153L89.82 147.42L98.46 154.08C114.12 166.14 125.28 168.66 133.74 162C142.02 155.52 143.46 145.8 139.86 120.06C139.68 117.54 141.66 115.92 147.78 113.58C163.44 107.46 172.8 97.7401 172.8 87.4801C172.8 80.6401 161.64 69.3001 150.12 64.6201L140.4 60.4801L141.48 47.5201C142.92 32.4001 140.4 23.4001 133.74 18.0001C125.28 11.3401 114.12 13.8601 98.46 25.9201L89.82 32.5801L82.8 27.0001C74.34 20.3401 61.74 14.5801 55.62 14.4001C52.92 14.4001 48.78 16.0201 46.26 18.0001ZM65.7 24.4801C68.94 25.9201 74.7 29.8801 78.3 32.9401L84.78 38.7001L77.04 47.1601C69.84 55.0801 68.58 55.6201 58.32 56.7001L47.34 57.9601L46.08 52.2001C43.56 38.8801 45.54 26.6401 51.12 23.0401C54.18 20.8801 59.22 21.4201 65.7 24.4801ZM130.14 24.6601C134.28 29.3401 135.54 36.7201 134.1 47.8801L132.84 57.9601L122.76 56.7001C108.36 55.0801 107.82 54.7201 101.34 46.2601L95.58 38.7001L100.26 33.8401C105.84 28.0801 118.08 21.6001 123.48 21.6001C125.46 21.6001 128.52 23.0401 130.14 24.6601ZM93.96 48.0601C98.82 52.5601 97.92 54.0001 90 54.0001C82.08 54.0001 81.36 53.1001 85.86 48.2401C89.46 44.2801 89.82 44.2801 93.96 48.0601ZM108.36 68.0401C110.88 71.6401 114.66 78.3001 116.82 82.6201L120.78 90.3601L113.94 102.24L107.1 114.3L90 114.84L72.9 115.38L66.06 102.78L59.22 90.1801L63.18 82.4401C65.34 78.3001 69.12 71.6401 71.64 68.0401L76.14 61.2001H90H103.86L108.36 68.0401ZM64.8 63.7201C64.8 64.0801 62.64 68.2201 60.12 72.9001L55.26 81.3601L52.92 75.6001C49.5 67.5001 49.86 65.1601 54.54 64.2601C60.3 63.1801 64.8 62.8201 64.8 63.7201ZM129.24 65.7001C130.32 66.7801 125.82 79.2001 124.56 79.2001C123.3 79.2001 115.2 65.8801 115.2 63.7201C115.2 62.6401 127.98 64.4401 129.24 65.7001ZM46.8 79.3801C49.86 88.0201 50.4 91.2601 48.78 95.0401C47.7 97.7401 46.08 102.06 45.18 104.76L43.38 109.62L35.82 106.92C19.08 101.16 11.16 90.7201 16.74 82.0801C19.44 77.9401 36.18 68.4001 40.68 68.4001C41.76 68.4001 44.46 73.2601 46.8 79.3801ZM154.8 75.2401C169.74 84.4201 168.3 95.2201 151.02 103.86C138.06 110.34 136.8 110.16 132.84 99.5401L129.06 90.0001L133.2 79.0201C136.98 68.9401 137.7 68.2201 142.02 69.3001C144.54 69.8401 150.3 72.5401 154.8 75.2401ZM59.58 106.38L63.36 113.94L57.42 112.68C54.18 112.14 51.3 111.24 50.94 111.06C50.4 110.34 54.54 99.0001 55.26 99.0001C55.44 99.0001 57.42 102.42 59.58 106.38ZM123.84 112.32C116.82 114.48 116.28 113.22 120.96 105.3L124.92 98.4601L127.08 104.58C129.06 110.52 128.88 110.7 123.84 112.32ZM64.62 121.68C68.4 122.4 72.18 125.64 77.22 132.3L84.6 142.02L78.84 146.7C71.82 152.64 60.66 158.4 55.98 158.4C54 158.4 50.76 156.24 48.6 153.36C45 149.04 44.64 147.06 45.54 135.54C46.08 128.34 46.98 121.68 47.7 120.6C48.42 119.52 51.3 118.98 54.18 119.52C57.06 120.06 61.74 121.14 64.62 121.68ZM133.38 125.1C136.62 140.04 134.28 153 127.44 157.14C122.94 160.02 111.78 156.06 102.96 148.32L95.4 141.84L98.82 137.16C108.18 124.56 110.88 122.22 118.8 120.78C130.32 118.44 132.12 118.98 133.38 125.1ZM96.12 128.7C93.42 132.3 90.54 134.82 89.46 134.46C88.38 134.1 85.68 131.4 83.16 128.16L78.66 122.4H89.82H100.98L96.12 128.7Z" fill="#FF6B6B"/>
<path d="M81.18 74.5201C65.52 83.1601 72.18 108 90 108C99.18 108 108 99.1801 108 90.1801C108 76.6801 93.06 67.8601 81.18 74.5201ZM97.2 82.8001C99.18 84.7801 100.8 88.0201 100.8 90.0001C100.8 94.6801 94.68 100.8 90 100.8C88.02 100.8 84.78 99.1801 82.8 97.2001C80.82 95.2201 79.2 91.9801 79.2 90.0001C79.2 88.0201 80.82 84.7801 82.8 82.8001C84.78 80.8201 88.02 79.2001 90 79.2001C91.98 79.2001 95.22 80.8201 97.2 82.8001Z" fill="#FF6B6B"/>
</g>
</svg>
