<svg width="180" height="180" viewBox="0 0 180 180" fill="none" xmlns="http://www.w3.org/2000/svg">
<g opacity="0.8">
<path d="M70.2 12.06C42.12 26.82 30.78 76.14 47.88 110.34C51.12 117 51.84 120.6 51.12 126.9C50.04 133.74 50.58 135.36 54.54 139.32C67.32 152.1 87.3 134.64 75.96 120.42C73.8 117.9 69.84 116.1 64.62 115.38C56.88 114.3 56.7 114.12 52.38 103.5C46.62 89.1 45.36 69.3 49.32 54C59.22 15.3 90.18 2.52003 111.42 28.26C117.18 35.28 124.2 51.3 124.2 57.6C124.2 61.2 128.7 66.6 131.58 66.6C133.74 66.6 132.12 56.34 127.8 43.74C120.6 23.04 105.66 9.18004 88.38 7.74004C81.72 7.02003 78.12 7.92004 70.2 12.06ZM70.2 125.1C72.9 128.34 72 133.2 68.04 135.72C61.74 139.68 54.72 130.86 59.4 125.1C62.28 121.68 67.32 121.68 70.2 125.1Z" fill="#FF6B6B"/>
<path d="M69.3 58.5C60.3 67.32 66.6 82.8 79.38 82.8C83.34 82.8 86.4 81.18 90.36 77.04L95.58 71.46L106.56 73.44C121.86 76.32 135 83.16 147.78 95.04C170.82 116.28 175.5 142.02 159.3 156.42C148.32 165.96 129.24 167.94 110.52 161.46C104.58 159.3 102.78 159.3 100.08 161.28C97.02 163.44 97.38 163.8 103.68 166.5C128.52 176.94 155.34 173.52 167.94 158.58C192.78 129.06 157.5 75.42 107.1 66.42C97.38 64.62 93.42 63 89.64 59.04C83.52 52.56 75.42 52.2 69.3 58.5ZM84.6 63.9C89.28 69.66 82.26 78.48 76.14 74.52C69.84 70.56 72 61.2 79.2 61.2C81 61.2 83.34 62.46 84.6 63.9Z" fill="#FF6B6B"/>
<path d="M22.32 93.96C7.56001 110.52 0.540007 131.94 5.40001 146.52C16.92 181.44 70.92 181.26 106.02 145.98C112.68 139.5 119.16 131.4 120.42 128.16C121.68 125.1 124.02 122.4 125.46 122.4C126.9 122.4 129.96 120.42 132.3 117.9C138.24 112.14 138.24 103.86 132.3 98.1C119.34 84.96 100.26 103.14 111.78 117.72L115.56 122.4L111.78 128.34C106.02 137.88 90 151.92 79.02 157.14C59.4 166.86 37.08 167.76 25.02 159.66C14.76 152.64 11.7 146.88 11.88 134.46C11.88 121.5 16.2 111.78 27.18 99.9C34.02 92.52 35.82 87.66 32.58 85.68C31.68 84.96 27.18 88.92 22.32 93.96ZM127.8 103.5C132.48 109.26 125.46 118.08 119.34 114.12C115.2 111.6 114.3 106.74 117 103.5C119.88 100.08 124.92 100.08 127.8 103.5Z" fill="#FF6B6B"/>
</g>
</svg>
